<?xml version="1.0" encoding="UTF-8" standalone="no"?>
<!-- Created with Inkscape (http://www.inkscape.org/) -->

<svg
   width="83.22438mm"
   height="83.597374mm"
   viewBox="0 0 83.22438 83.597374"
   version="1.1"
   id="svg1"
   xml:space="preserve"
   xmlns="http://www.w3.org/2000/svg"
   xmlns:svg="http://www.w3.org/2000/svg"><defs
     id="defs1" /><path
     style="display:inline;fill:#d5b163;fill-opacity:1"
     d="m 41.539584,0.00196634 c -3.39351,0.019 -3.84499,0.149877 -9.35705,2.71404586 -2.12965,0.990696 -6.67008,3.0812911 -10.08982,4.6457121 -3.419744,1.56442 -7.451684,3.4233797 -8.959664,4.1310137 -1.50797,0.707634 -2.77548,1.286743 -2.81688,1.286743 -0.0414,0 -1.4594196,0.652314 -3.1507196,1.45004 C 3.57865,15.921286 2.2061,17.150128 0.8692,19.865868 L 0,21.631658 v 20.2463 20.24631 l 0.79117,1.5875 c 0.87892,1.76346 3.01981,4.04591 4.3971404,4.68809 0.49333,0.23001 1.90913,0.8916 3.14606,1.47019 1.23692,0.57859 2.8442796,1.31985 3.5718796,1.64693 0.72761,0.32708 2.27541,1.04145 3.43958,1.5875 1.16416,0.54604 2.71198,1.26042 3.43959,1.5875 0.7276,0.32708 2.275424,1.04145 3.439584,1.5875 1.16417,0.54604 2.71197,1.26124 3.43958,1.58957 0.7276,0.32834 2.09683,0.95358 3.04271,1.38958 0.94589,0.43601 2.43416,1.11947 3.30729,1.51877 0.87312,0.3993 2.30187,1.05948 3.175,1.46709 0.87312,0.40761 2.18282,0.89615 2.91042,1.08572 1.78244,0.46441 6.21826,0.29717 7.9375,-0.2992 0.72761,-0.25239 2.69213,-1.0869 4.36562,-1.85467 1.67349,-0.76778 3.69756,-1.69486 4.49792,-2.06034 0.80037,-0.36548 2.34817,-1.07829 3.43958,-1.58388 1.0914,-0.50558 2.63922,-1.21957 3.43959,-1.58699 2.70093,-1.2399 5.14716,-2.3727 7.63674,-3.5357 1.36259,-0.63653 2.51518,-1.15703 2.56108,-1.15703 0.0459,0 1.66958,-0.75735 3.60805,-1.68259 3.64236,-1.73852 4.62719,-2.47252 5.95985,-4.44055 1.77811,-2.62586 1.68975,-1.38037 1.67225,-23.47454 l -0.016,-20.00601 -0.77205,-1.64951 c -1.44848,-3.095343 -2.89543,-4.246405 -8.54521,-6.797521 -2.04527,-0.923524 -6.5291,-2.972307 -9.45886,-4.3216997 -0.94588,-0.435658 -2.37463,-1.093248 -3.175,-1.461409 -0.80036,-0.368161 -2.34817,-1.082952 -3.43958,-1.588534 -1.09141,-0.505583 -2.63923,-1.219958 -3.43959,-1.5875001 -0.80037,-0.367543 -2.34817,-1.082087 -3.43958,-1.588017 -5.59556,-2.59386186 -5.87334,-2.67225086 -9.39271,-2.65255086 z M 12.39046,20.669958 c 0.49979,-0.01 1.01416,0.0778 1.52342,0.27647 0.35087,0.13689 1.65024,0.72133 2.88716,1.29914 1.23693,0.57782 2.90381,1.35097 3.70417,1.71773 0.800374,0.36675 2.348184,1.08053 3.439584,1.58646 1.09141,0.50593 2.57968,1.18888 3.30729,1.51722 0.7276,0.32835 2.21588,1.01172 3.30729,1.51877 1.0914,0.50706 2.46062,1.13338 3.04271,1.39165 0.58208,0.25827 2.01083,0.92497 3.175,1.48208 2.04228,0.97733 2.21429,1.01289 4.89479,1.00769 l 2.77813,-0.005 4.10104,-1.92701 c 4.37621,-2.05629 11.10525,-5.16433 14.68438,-6.78254 0.7276,-0.32896 2.39448,-1.11218 3.70416,-1.74046 1.99592,-0.95747 2.64553,-1.1443 4.01371,-1.1529 1.38386,-0.009 1.74027,0.0909 2.34094,0.65164 1.71021,1.59661 2.18658,3.97215 1.11983,5.58312 -0.60524,0.91402 -2.15735,1.80317 -7.0776,4.05454 -1.23693,0.56598 -3.26099,1.49593 -4.49792,2.06653 -1.23692,0.57061 -2.78474,1.28155 -3.43958,1.57975 -0.65484,0.29819 -2.08359,0.95562 -3.175,1.46141 -2.39534,1.11007 -4.74213,2.19188 -6.35,2.92644 -1.32989,0.60757 -2.60284,1.83714 -3.34398,3.23029 -0.45697,0.85899 -0.50206,1.92228 -0.62477,14.68438 -0.14845,15.4388 -0.0667,14.82283 -2.12907,15.98197 -1.93624,1.08823 -4.54754,0.50996 -5.73712,-1.27073 l -0.60048,-0.89917 v -13.4121 -13.41261 l -0.81649,-1.6335 c -1.21018,-2.42178 -0.94343,-2.25984 -12.28038,-7.44657 -2.43618,-1.11457 -4.568024,-2.0959 -6.746884,-3.10524 -3.39611,-1.57321 -4.58125,-2.11647 -6.08542,-2.78897 -2.4553496,-1.09776 -3.1749996,-2.0165 -3.1749996,-4.0535 0,-2.48671 1.8903196,-4.34551 4.0560896,-4.38681 z"
     id="path116" /></svg>
